      <svg
        width="77"
        height="77"
        viewBox="0 0 77 77"
        fill="none"
        xmlns="http://www.w3.org/2000/svg"
      >
        <circle
          cx="1.66343"
          cy="74.5221"
          r="1.66343"
          transform="rotate(-90 1.66343 74.5221)"
          fill="#3056D3"
        />
        <circle
          cx="1.66343"
          cy="30.94"
          r="1.66343"
          transform="rotate(-90 1.66343 30.94)"
          fill="#3056D3"
        />
        <circle
          cx="16.3016"
          cy="74.5221"
          r="1.66343"
          transform="rotate(-90 16.3016 74.5221)"
          fill="#3056D3"
        />
        <circle
          cx="16.3016"
          cy="30.94"
          r="1.66343"
          transform="rotate(-90 16.3016 30.94)"
          fill="#3056D3"
        />
        <circle
          cx="30.9398"
          cy="74.5221"
          r="1.66343"
          transform="rotate(-90 30.9398 74.5221)"
          fill="#3056D3"
        />
        <circle
          cx="30.9398"
          cy="30.94"
          r="1.66343"
          transform="rotate(-90 30.9398 30.94)"
          fill="#3056D3"
        />
        <circle
          cx="45.578"
          cy="74.5221"
          r="1.66343"
          transform="rotate(-90 45.578 74.5221)"
          fill="#3056D3"
        />
        <circle
          cx="45.578"
          cy="30.94"
          r="1.66343"
          transform="rotate(-90 45.578 30.94)"
          fill="#3056D3"
        />
        <circle
          cx="60.2162"
          cy="74.5216"
          r="1.66343"
          transform="rotate(-90 60.2162 74.5216)"
          fill="#3056D3"
        />
        <circle
          cx="74.6634"
          cy="74.5216"
          r="1.66343"
          transform="rotate(-90 74.6634 74.5216)"
          fill="#3056D3"
        />
        <circle
          cx="60.2162"
          cy="30.9398"
          r="1.66343"
          transform="rotate(-90 60.2162 30.9398)"
          fill="#3056D3"
        />
        <circle
          cx="74.6634"
          cy="30.9398"
          r="1.66343"
          transform="rotate(-90 74.6634 30.9398)"
          fill="#3056D3"
        />
        <circle
          cx="1.66343"
          cy="59.8839"
          r="1.66343"
          transform="rotate(-90 1.66343 59.8839)"
          fill="#3056D3"
        />
        <circle
          cx="1.66343"
          cy="16.3017"
          r="1.66343"
          transform="rotate(-90 1.66343 16.3017)"
          fill="#3056D3"
        />
        <circle
          cx="16.3016"
          cy="59.8839"
          r="1.66343"
          transform="rotate(-90 16.3016 59.8839)"
          fill="#3056D3"
        />
        <circle
          cx="16.3016"
          cy="16.3017"
          r="1.66343"
          transform="rotate(-90 16.3016 16.3017)"
          fill="#3056D3"
        />
        <circle
          cx="30.9398"
          cy="59.8839"
          r="1.66343"
          transform="rotate(-90 30.9398 59.8839)"
          fill="#3056D3"
        />
        <circle
          cx="30.9398"
          cy="16.3017"
          r="1.66343"
          transform="rotate(-90 30.9398 16.3017)"
          fill="#3056D3"
        />
        <circle
          cx="45.578"
          cy="59.8839"
          r="1.66343"
          transform="rotate(-90 45.578 59.8839)"
          fill="#3056D3"
        />
        <circle
          cx="45.578"
          cy="16.3017"
          r="1.66343"
          transform="rotate(-90 45.578 16.3017)"
          fill="#3056D3"
        />
        <circle
          cx="60.2162"
          cy="59.8839"
          r="1.66343"
          transform="rotate(-90 60.2162 59.8839)"
          fill="#3056D3"
        />
        <circle
          cx="74.6634"
          cy="59.8839"
          r="1.66343"
          transform="rotate(-90 74.6634 59.8839)"
          fill="#3056D3"
        />
        <circle
          cx="60.2162"
          cy="16.3017"
          r="1.66343"
          transform="rotate(-90 60.2162 16.3017)"
          fill="#3056D3"
        />
        <circle
          cx="74.6634"
          cy="16.3017"
          r="1.66343"
          transform="rotate(-90 74.6634 16.3017)"
          fill="#3056D3"
        />
        <circle
          cx="1.66343"
          cy="45.2455"
          r="1.66343"
          transform="rotate(-90 1.66343 45.2455)"
          fill="#3056D3"
        />
        <circle
          cx="1.66343"
          cy="1.66342"
          r="1.66343"
          transform="rotate(-90 1.66343 1.66342)"
          fill="#3056D3"
        />
        <circle
          cx="16.3016"
          cy="45.2455"
          r="1.66343"
          transform="rotate(-90 16.3016 45.2455)"
          fill="#3056D3"
        />
        <circle
          cx="16.3016"
          cy="1.66342"
          r="1.66343"
          transform="rotate(-90 16.3016 1.66342)"
          fill="#3056D3"
        />
        <circle
          cx="30.9398"
          cy="45.2455"
          r="1.66343"
          transform="rotate(-90 30.9398 45.2455)"
          fill="#3056D3"
        />
        <circle
          cx="30.9398"
          cy="1.66342"
          r="1.66343"
          transform="rotate(-90 30.9398 1.66342)"
          fill="#3056D3"
        />
        <circle
          cx="45.578"
          cy="45.2455"
          r="1.66343"
          transform="rotate(-90 45.578 45.2455)"
          fill="#3056D3"
        />
        <circle
          cx="45.578"
          cy="1.66344"
          r="1.66343"
          transform="rotate(-90 45.578 1.66344)"
          fill="#3056D3"
        />
        <circle
          cx="60.2162"
          cy="45.2458"
          r="1.66343"
          transform="rotate(-90 60.2162 45.2458)"
          fill="#3056D3"
        />
        <circle
          cx="74.6634"
          cy="45.2458"
          r="1.66343"
          transform="rotate(-90 74.6634 45.2458)"
          fill="#3056D3"
        />
        <circle
          cx="60.2162"
          cy="1.66371"
          r="1.66343"
          transform="rotate(-90 60.2162 1.66371)"
          fill="#3056D3"
        />
        <circle
          cx="74.6634"
          cy="1.66371"
          r="1.66343"
          transform="rotate(-90 74.6634 1.66371)"
          fill="#3056D3"
        />
      </svg>